<svg width="205" height="213" viewBox="0 0 205 213" fill="none" xmlns="http://www.w3.org/2000/svg">
<path opacity="0.65" d="M80.6669 0.115248C131.313 1.76143 151.951 34.5554 145.366 74.6924C139.507 110.406 108.015 140.152 55.3436 140.152H10.1307C4.02512 140.152 -0.692932 134.79 0.0838738 128.734L15.4647 8.82912C16.1133 3.7748 20.4002 -0.00841618 25.496 1.40611e-05C43.9317 0.0306197 80.6669 0.115248 80.6669 0.115248ZM77.8651 13.6748C69.8878 66.8529 68.4229 68.5033 14.6845 70.1455C68.4229 71.7962 69.5779 74.0692 65.1464 126.994C72.8708 74.0526 74.3929 71.7962 128.132 70.1455C74.3929 68.495 73.1804 66.8531 77.8651 13.6748Z" fill="white"/>
<path opacity="0.65" d="M97.6043 212.208H65.6213C59.5154 212.208 54.7974 206.846 55.5744 200.789L64.6636 129.951C69.7292 109.179 69.6763 88.8866 79.1456 79.9123C88.6148 70.9379 110.155 70.2876 135.984 70.2876H144.208C201.025 72.1343 207.058 105.233 203.156 129.951C199.253 154.669 175.6 168.449 144.208 168.449H121.451C116.414 168.449 112.142 172.15 111.425 177.136L107.63 203.52C106.913 208.506 102.642 212.208 97.6043 212.208Z" fill="white"/>
<g filter="url(#filter0_i_2575_1187)">
<path d="M144.2 70.288C144.793 70.3072 145.38 70.3303 145.961 70.3563C145.794 71.7912 145.592 73.237 145.354 74.6923C139.799 108.548 111.21 137.04 63.3789 139.913L64.6562 129.951C66.7036 118.2 67.967 106.132 70.4424 96.2724C76.3726 73.7098 86.5083 71.5469 123.077 70.3065C127.23 70.2791 131.544 70.288 135.977 70.288H144.2Z" fill="white"/>
</g>
<defs>
<filter id="filter0_i_2575_1187" x="63.3789" y="70.2866" width="83.0885" height="70.1329" filterUnits="userSpaceOnUse" color-interpolation-filters="sRGB">
<feFlood flood-opacity="0" result="BackgroundImageFix"/>
<feBlend mode="normal" in="SourceGraphic" in2="BackgroundImageFix" result="shape"/>
<feColorMatrix in="SourceAlpha" type="matrix" values="0 0 0 0 0 0 0 0 0 0 0 0 0 0 0 0 0 0 127 0" result="hardAlpha"/>
<feOffset dx="0.506462" dy="0.506462"/>
<feGaussianBlur stdDeviation="2.53231"/>
<feComposite in2="hardAlpha" operator="arithmetic" k2="-1" k3="1"/>
<feColorMatrix type="matrix" values="0 0 0 0 0 0 0 0 0 0 0 0 0 0 0 0 0 0 0.05 0"/>
<feBlend mode="normal" in2="shape" result="effect1_innerShadow_2575_1187"/>
</filter>
</defs>
</svg>
